<?xml version="1.0" standalone="no"?>
<!DOCTYPE svg PUBLIC "-//W3C//DTD SVG 20010904//EN"
 "http://www.w3.org/TR/2001/REC-SVG-20010904/DTD/svg10.dtd">
<svg version="1.0" xmlns="http://www.w3.org/2000/svg"
 width="1058.000000pt" height="774.000000pt" viewBox="0 0 1058.000000 774.000000"
 preserveAspectRatio="xMidYMid meet">

<g transform="translate(0.000000,774.000000) scale(0.100000,-0.100000)"
fill="#000000" stroke="none">
<path d="M5158 7626 c-46 -18 -155 -91 -169 -114 -6 -9 -745 -1637 -1643
-3617 l-1633 -3600 611 -3 c587 -2 614 -2 677 18 123 37 187 115 282 345 100
239 1768 3880 1794 3914 14 18 46 46 72 63 38 24 54 29 89 25 48 -5 140 -62
167 -103 22 -34 1715 -3738 1782 -3899 95 -230 159 -308 282 -345 63 -20 90
-20 677 -18 l611 3 -1633 3600 c-1551 3420 -1635 3602 -1677 3640 -95 87 -207
122 -289 91z"/>
<path d="M6609 6628 c15 -35 461 -1012 991 -2173 530 -1160 976 -2140 992
-2177 43 -102 39 -111 -134 -329 l-124 -156 350 -746 c193 -411 354 -746 358
-744 4 1 282 417 617 925 l610 922 -881 1903 c-484 1046 -909 1967 -944 2047
-131 304 -229 432 -389 511 -156 76 -125 73 -837 77 l-638 3 29 -63z"/>
<path d="M2570 6665 c-136 -28 -243 -81 -325 -163 -96 -96 -154 -191 -249
-412 -35 -80 -460 -1001 -944 -2047 l-881 -1903 610 -922 c335 -508 613 -924
617 -925 4 -2 165 333 358 744 l350 746 -124 156 c-173 218 -177 227 -134 329
16 37 462 1017 992 2177 530 1161 975 2138 991 2173 l28 62 -612 -1 c-466 -1
-627 -4 -677 -14z"/>
<path d="M4613 2923 c-4 -10 -50 -126 -104 -258 l-96 -240 414 -3 c228 -1 598
-1 822 0 l408 3 -103 255 -103 255 -616 3 c-579 2 -616 1 -622 -15z"/>
</g>
</svg>
